<?xml version="1.0" encoding="UTF-8"?>
<svg width="247px" height="128px" viewBox="0 0 247 128" version="1.1" xmlns="http://www.w3.org/2000/svg" xmlns:xlink="http://www.w3.org/1999/xlink">
    <!-- Generator: sketchtool 55.2 (78181) - https://sketchapp.com -->
    <title>50EAE49D-FCEB-42A1-A26F-28A61EABDC98</title>
    <desc>Created with sketchtool.</desc>
    <g id="Page-1" stroke="none" stroke-width="1" fill="none" fill-rule="evenodd">
        <g id="Coming-Soon" transform="translate(-517.000000, -147.000000)" fill="#FFFFFF">
            <g id="Group-3" transform="translate(281.000000, 147.000000)">
                <g id="Luxe_Camper_Logo-Final" transform="translate(236.000000, 0.000000)">
                    <g id="Group-6">
                        <polyline id="Fill-1" points="0 42.224 0 0.488 5.97632609 0.488 5.97632609 37.0515556 25.2118986 37.0515556 24.7384819 42.224 0 42.224"></polyline>
                        <path d="M94.811308,0.488 L100.730359,0.488 L100.848489,22.4142222 C100.848489,28.88 99.3691739,33.8871111 96.4096486,37.4328889 C93.4501232,40.9804444 89.1499964,42.7528889 83.5074783,42.7528889 C77.7468297,42.7528889 73.4467029,41.264 70.605308,38.2853333 C67.764808,35.3075556 66.344558,30.7031111 66.344558,24.4711111 L66.344558,0.488 L72.3817391,0.488 L72.3817391,24.0604444 C72.3817391,28.7235556 73.2784565,32.0942222 75.0745761,34.1706667 C76.8689058,36.248 79.6601848,37.2862222 83.448413,37.2862222 C87.3932536,37.2862222 90.2937138,36.0622222 92.1488986,33.6124444 C94.0022935,31.1635556 94.90975,27.3715556 94.8712681,22.2382222 L94.811308,0.488" id="Fill-3"></path>
                        <polyline id="Fill-4" points="149.61488 42.224 142.868022 42.224 157.367638 20.9448889 143.814855 0.488 150.620779 0.488 160.859645 16.0071111 171.216641 0.488 177.667279 0.488 163.937301 20.768 178.259721 42.224 171.334772 42.224 160.563424 25.7644444 149.61488 42.224"></polyline>
                        <polyline id="Fill-5" points="245.479518 5.60177778 225.771424 5.60177778 225.771424 18.5342222 244.768946 18.5342222 244.768946 23.648 225.771424 23.648 225.771424 37.1102222 246.248261 37.1102222 245.774844 42.224 219.912333 42.224 219.912333 0.488 245.479518 0.488 245.479518 5.60177778"></polyline>
                    </g>
                    <path d="M18.7236739,56.0222222 C21.3064348,56.0222222 23.7182645,56.5031111 25.960058,57.464 C28.2018514,58.4257778 30.183221,59.7626667 31.9059565,61.4728889 L27.4939638,65.8551111 C25.0534964,63.432 22.131558,62.2204444 18.7236739,62.2204444 C17.0027283,62.2204444 15.3873841,62.5413333 13.881221,63.1831111 C12.374163,63.8248889 11.0559348,64.7066667 9.92653623,65.8284444 C8.79713768,66.9502222 7.89952536,68.2595556 7.23638406,69.7573333 C6.57234783,71.2524444 6.24122464,72.8551111 6.24122464,74.5662222 C6.24122464,76.2764444 6.57234783,77.8791111 7.23638406,79.3751111 C7.89952536,80.872 8.78818841,82.1813333 9.89968841,83.304 C11.0102935,84.4248889 12.3294167,85.3075556 13.8543732,85.9484444 C15.3784348,86.5902222 17.0027283,86.9102222 18.7236739,86.9102222 C22.0948659,86.9102222 25.0185942,85.7173333 27.4939638,83.3297778 L31.9059565,87.6586667 C30.183221,89.3688889 28.2018514,90.7057778 25.960058,91.6675556 C23.7182645,92.6293333 21.3064348,93.1102222 18.7236739,93.1102222 C16.140913,93.1102222 13.7201341,92.6204444 11.4595471,91.64 C9.19985507,90.6604444 7.21848551,89.3342222 5.51454348,87.6586667 C3.81060145,85.9848889 2.46552536,84.0248889 1.48021014,81.7804444 C0.493105072,79.536 0,77.1306667 0,74.5662222 C0,72.0728889 0.493105072,69.6942222 1.48021014,67.4311111 C2.46552536,65.1688889 3.81060145,63.192 5.51454348,61.4995556 C7.21848551,59.808 9.19985507,58.4711111 11.4595471,57.4915556 C13.7201341,56.512 16.140913,56.0222222 18.7236739,56.0222222" id="Fill-7"></path>
                    <polyline id="Fill-8" points="91.5922536 70.9324444 91.5922536 93.1102222 85.4047246 93.1102222 85.4047246 56.0222222 104.074703 74.5662222 122.798377 56.0222222 122.798377 93.1102222 116.503457 93.1102222 116.503457 70.9324444 104.074703 83.3297778 91.5922536 70.9324444"></polyline>
                    <path d="M141.315322,62.2204444 L141.315322,74.5662222 L153.798667,74.5662222 C155.48471,74.5662222 156.937178,73.96 158.156964,72.7484444 C159.375855,71.5377778 159.986196,70.0942222 159.986196,68.4204444 C159.986196,66.7102222 159.375855,65.2497778 158.156964,64.0382222 C156.937178,62.8275556 155.48471,62.2204444 153.798667,62.2204444 L141.315322,62.2204444 Z M141.315322,80.7653333 L141.315322,93.1102222 L135.127793,93.1102222 L135.127793,56.0222222 L153.798667,56.0222222 C157.206551,56.0222222 160.128489,57.2337778 162.568957,59.656 C165.007634,62.0791111 166.226525,65 166.226525,68.4204444 C166.226525,71.8053333 165.007634,74.7262222 162.568957,77.1848889 C160.128489,79.5724444 157.206551,80.7653333 153.798667,80.7653333 L141.315322,80.7653333 L141.315322,80.7653333 Z" id="Fill-9"></path>
                    <polyline id="Fill-10" points="202.488989 56.0222222 202.488989 62.2204444 183.818116 62.2204444 183.818116 71.52 202.488989 71.52 202.488989 77.6657778 183.818116 77.6657778 183.818116 86.9102222 202.488989 86.9102222 202.488989 93.1102222 177.631482 93.1102222 177.631482 56.0222222 202.488989 56.0222222"></polyline>
                    <path d="M233.820402,62.2204444 L221.337058,62.2204444 L221.337058,74.5128889 L233.820402,74.5662222 C235.505551,74.5662222 236.958018,73.96 238.178699,72.7484444 C239.397591,71.5377778 240.007931,70.0773333 240.007931,68.3662222 C240.007931,66.6924444 239.397591,65.2497778 238.178699,64.0382222 C236.958018,62.8275556 235.505551,62.2204444 233.820402,62.2204444 Z M239.09242,93.1102222 L231.882884,80.7653333 L221.337058,80.7653333 L221.337058,93.1102222 L215.150424,93.1102222 L215.150424,56.0222222 L233.820402,56.0222222 C237.227391,56.0222222 240.150225,57.2337778 242.590692,59.656 C245.02937,62.0791111 246.248261,64.9813333 246.248261,68.3662222 C246.248261,70.9324444 245.513525,73.2657778 244.043159,75.3671111 C242.607696,77.4337778 240.778464,78.9128889 238.554569,79.8026667 L246.248261,93.1102222 L239.09242,93.1102222 L239.09242,93.1102222 Z" id="Fill-11"></path>
                    <polyline id="Fill-12" points="0 113.823111 26.9024167 113.823111 28.4631703 110.540444 0 110.540444 0 113.823111"></polyline>
                    <g id="Group-16" transform="translate(25.057971, 56.000000)">
                        <polyline id="Fill-13" points="61.9245109 54.5404444 63.4852645 57.8231111 221.19029 57.8231111 221.19029 54.5404444 61.9245109 54.5404444"></polyline>
                        <path d="M32.4303841,52.2106667 L11.6609058,60.8364444 L32.4303841,12.6062222 L32.4303841,52.2106667 Z M32.4303841,0.0222222222 L0.318594203,71.1111111 L32.7069167,58.0942222 L64.5430688,71.1111111 L32.4303841,0.0222222222 L32.4303841,0.0222222222 Z" id="Fill-15"></path>
                    </g>
                </g>
            </g>
        </g>
    </g>
</svg>