<?xml version="1.0" encoding="UTF-8"?>
<svg width="205px" height="178px" viewBox="0 0 205 178" version="1.1" xmlns="http://www.w3.org/2000/svg" xmlns:xlink="http://www.w3.org/1999/xlink">
    <!-- Generator: sketchtool 61.2 (101010) - https://sketch.com -->
    <title>140C3AB3-8A11-401C-9B83-AB4D3C425DB1</title>
    <desc>Created with sketchtool.</desc>
    <g id="Page-1" stroke="none" stroke-width="1" fill="none" fill-rule="evenodd">
        <g id="peerly-2-copy" transform="translate(-537.000000, -165.000000)">
            <g id="Group-3" transform="translate(537.000000, 165.000000)">
                <path d="M102.285722,177.828922 C45.7954444,177.828922 -2.81059127e-14,175.633589 -2.81059127e-14,172.927 C-2.81059127e-14,170.220411 45.7954444,168.026067 102.285722,168.026067 C158.776,168.026067 204.569467,170.220411 204.569467,172.927 C204.569467,175.633589 158.776,177.828922 102.285722,177.828922" id="Fill-4" fill="#D2CFCD"></path>
                <path d="M162.037356,69.4467 L165.740744,70.7866444 L168.492822,71.7804778 C168.492822,71.7804778 176.841022,60.5516444 175.667211,51.7109778 C175.510967,51.4983667 175.3478,51.3005889 175.172767,51.1146778 C173.6924,50.6083667 168.8063,49.1349222 167.525689,51.2531222 C167.525689,51.2531222 167.240889,52.2647556 166.757322,53.9359778 C165.768433,57.3506111 163.950856,63.5183111 162.037356,69.4467" id="Fill-5" fill="#7F70A5"></path>
                <path d="M143.965411,69.8076444 C143.965411,69.8076444 144.479633,69.9213667 145.359744,70.1023333 C149.125433,70.8726778 159.5948,72.8732 165.3531,72.4944556 C166.706889,72.4064444 167.802578,72.1839444 168.487878,71.7854222 L168.492822,71.7804778 L168.4948,71.7804778 L168.4948,71.7775111 C168.445356,71.6736778 167.135078,68.8504 165.757556,67.1277556 C165.164222,66.3831222 164.556056,65.8441778 164.034911,65.8174778 C164.034911,65.8174778 157.849411,66.2674222 153.434022,66.1784222 C150.541522,66.1190889 148.181044,65.9143889 146.739244,65.7561667 C145.745411,65.6473889 145.186689,65.5633333 145.186689,65.5633333 L143.965411,69.8076444" id="Fill-6" fill="#7F70A5"></path>
                <path d="M145.359744,70.1023333 L146.739244,65.7561667 C145.7464,65.6473889 145.187678,65.5633333 145.187678,65.5633333 L143.965411,69.8086333 C143.965411,69.8086333 144.479633,69.9213667 145.359744,70.1023333" id="Fill-7" fill="#FFFFFE"></path>
                <path d="M140.273889,63.0337556 C141.1629,63.3314111 141.826444,63.5667667 141.391333,63.1890111 C140.527044,62.4394333 140.597256,61.1736556 141.158944,61.3803333 C141.720633,61.588 142.437578,61.9143333 143.323622,63.0110111 C144.208678,64.1067 145.187678,65.5633333 145.187678,65.5633333 L143.965411,69.8086333 C143.965411,69.8086333 140.8247,69.6355778 139.398722,68.3233222 C139.482778,66.3851 139.840756,64.9215444 140.273889,63.0337556" id="Fill-8" fill="#D99F7E"></path>
                <path d="M131.718022,70.5414 C134.035978,71.7260889 136.674333,71.7260889 139.633089,70.5414 L139.633089,59.6972444 L131.718022,59.6972444 L131.718022,70.5414" id="Fill-9" fill="#353055"></path>
                <path d="M139.555956,68.8968778 C140.559678,68.5685667 142.454389,67.3472889 142.454389,65.0748222 C142.454389,62.7993889 140.556711,61.5929444 139.552989,61.2715556 L139.233578,62.2723111 L139.392789,61.7719333 L139.2316,62.2713222 C139.3206,62.3 141.405178,63.0050778 141.405178,65.0748222 C141.405178,67.1633556 139.251378,67.8931556 139.229622,67.9000778 L139.555956,68.8968778" id="Fill-10" fill="#353055"></path>
                <path d="M139.159411,63.2078 C139.312689,62.4592111 140.163133,62.0784889 140.8158,62.4770111 C141.081811,62.6401778 141.307278,62.8587222 141.395289,63.1534111 C141.674156,64.0760444 141.575267,67.4155222 140.357944,67.8269 C138.950756,68.3015667 138.650133,65.682 139.159411,63.2078" id="Fill-11" fill="#D99F7E"></path>
                <path d="M165.3531,72.4944556 C166.706889,72.4064444 167.802578,72.1839444 168.487878,71.7854222 L168.492822,71.7804778 L168.4948,71.7775111 C168.657967,71.5550111 176.828167,60.4626444 175.667211,51.7109778 C175.510967,51.4983667 175.3478,51.3005889 175.172767,51.1146778 C173.6924,50.6083667 168.8063,49.1349222 167.525689,51.2531222 C167.525689,51.2531222 167.240889,52.2647556 166.757322,53.9359778 L165.3531,72.4944556" id="Fill-12" fill="#7F70A5"></path>
                <path d="M196.490244,119.274833 C196.457611,119.692144 196.420033,120.116378 196.380478,120.546544 C195.654633,128.269767 193.838044,137.617733 193.838044,137.617733 C197.261578,142.470211 192.020467,159.010367 192.020467,159.010367 L188.2083,160.454144 L184.6216,116.301244 C184.6216,116.301244 196.0314,109.432422 196.508044,112.561267 C196.755267,114.170189 196.702856,116.578133 196.490244,119.274833" id="Fill-13" fill="#D99F7E"></path>
                <path d="M196.490244,119.274833 C193.594778,120.9421 188.043156,121.208111 185.023089,121.241733 L184.6216,116.301244 C184.6216,116.301244 196.0314,109.432422 196.508044,112.561267 C196.755267,114.170189 196.702856,116.578133 196.490244,119.274833" id="Fill-14" fill="#D1836F"></path>
                <path d="M192.881789,160.812122 C192.832344,161.816833 192.430856,169.537089 192.223189,172.596711 L190.859511,172.596711 L190.859511,166.237167 C190.859511,166.237167 190.066422,168.337567 188.7957,170.148222 L188.567267,170.463678 C187.737589,171.566289 186.728922,172.501778 185.617411,172.680767 C183.381533,173.044678 180.312022,172.865689 178.8989,172.751967 C178.5785,172.725267 178.424233,172.347511 178.635856,172.106222 C179.386422,171.252811 180.854922,169.573678 182.282878,167.8896 L182.284856,167.887622 C182.3788,167.777856 182.470767,167.668089 182.562733,167.558322 C182.8416,167.228033 183.116511,166.900711 183.381533,166.5813 C184.444589,165.306622 185.358322,164.163467 185.759811,163.552333 C186.271067,162.767156 187.115578,161.655644 188.010522,160.669722 L188.014478,160.666756 L188.017444,160.660822 C189.1873,159.374278 190.440222,158.307267 191.139367,158.463511 L191.362856,158.567344 C191.362856,158.567344 191.676333,158.714689 192.020467,159.010367 C192.448656,159.379222 192.924311,159.978489 192.881789,160.812122" id="Fill-15" fill="#481F2D"></path>
                <path d="M192.020467,159.010367 C191.761378,159.371311 191.238256,159.848944 191.088933,160.212856 C191.054322,160.300867 190.6113,161.052422 190.571744,161.1434 C189.410789,163.870756 187.174911,167.1954 185.193178,168.151656 C182.691289,169.361067 182.299689,167.949922 182.282878,167.8896 L182.282878,167.887622 C182.377811,167.777856 182.469778,167.668089 182.562733,167.558322 C182.8416,167.228033 183.116511,166.900711 183.381533,166.5813 C184.444589,165.306622 185.358322,164.163467 185.759811,163.552333 C186.271067,162.767156 187.115578,161.655644 188.010522,160.669722 L188.014478,160.666756 L188.017444,160.660822 C189.1873,159.374278 190.440222,158.307267 191.139367,158.463511 L191.362856,158.567344 C191.362856,158.567344 191.676333,158.714689 192.020467,159.010367" id="Fill-16" fill="#D99F7E"></path>
                <path d="M181.293989,120.464467 C180.220056,127.765433 175.256822,138.6976 175.256822,138.6976 C178.678378,143.5481 171.613756,161.322389 171.613756,161.322389 L168.093311,161.322389 L170.013733,115.900744 C170.013733,115.900744 177.980222,112.537533 180.412889,114.564756 C181.557033,115.518044 181.696467,117.7381 181.293989,120.464467" id="Fill-17" fill="#D99F7E"></path>
                <path d="M181.293989,120.464467 C177.878367,122.5619 173.212789,123.276867 169.693333,123.493433 L170.013733,115.900744 C170.013733,115.900744 177.980222,112.537533 180.412889,114.564756 C181.557033,115.518044 181.696467,117.7381 181.293989,120.464467" id="Fill-18" fill="#D1836F"></path>
                <path d="M173.248389,160.812122 C173.198944,161.816833 172.796467,169.537089 172.589789,172.596711 L171.225122,172.596711 L171.225122,166.237167 C171.225122,166.237167 170.434011,168.337567 169.1623,170.148222 L168.933867,170.463678 C168.104189,171.566289 167.096511,172.501778 165.985,172.680767 C163.749122,173.044678 160.678622,172.865689 159.266489,172.751967 C158.9451,172.725267 158.790833,172.347511 159.002456,172.106222 C159.754011,171.252811 161.221522,169.573678 162.650467,167.8896 L162.651456,167.887622 C162.7454,167.777856 162.838356,167.668089 162.930322,167.558322 C163.2082,167.228033 163.483111,166.900711 163.749122,166.5813 C164.811189,165.306622 165.725911,164.163467 166.126411,163.552333 C166.638656,162.767156 167.482178,161.655644 168.378111,160.669722 L168.380089,160.666756 L168.384044,160.660822 C169.5539,159.374278 170.807811,158.307267 171.505967,158.463511 L171.729456,158.567344 C171.729456,158.567344 172.043922,158.714689 172.387067,159.010367 C172.816244,159.379222 173.290911,159.978489 173.248389,160.812122" id="Fill-19" fill="#481F2D"></path>
                <path d="M172.387067,159.010367 C172.127978,159.371311 171.604856,159.848944 171.456522,160.212856 C171.420922,160.300867 170.976911,161.052422 170.938344,161.1434 C169.778378,163.870756 167.5425,167.1954 165.560767,168.151656 C163.057889,169.361067 162.666289,167.949922 162.650467,167.8896 L162.650467,167.887622 C162.743422,167.777856 162.836378,167.668089 162.930322,167.558322 C163.2082,167.228033 163.483111,166.900711 163.749122,166.5813 C164.811189,165.306622 165.725911,164.163467 166.126411,163.552333 C166.638656,162.767156 167.482178,161.655644 168.378111,160.669722 L168.380089,160.666756 L168.384044,160.660822 C169.5539,159.374278 170.807811,158.307267 171.505967,158.463511 L171.729456,158.567344 C171.729456,158.567344 172.043922,158.714689 172.387067,159.010367" id="Fill-20" fill="#D99F7E"></path>
                <path d="M193.293167,88.2662444 C185.8142,90.8165889 176.708511,91.4593667 171.139089,88.4501778 L168.1477,67.1129222 C167.516789,64.4903889 167.370433,61.7739111 167.715556,59.0989667 L168.855744,50.3057667 L173.022922,48.8975889 L179.910533,46.5677667 L181.645044,47.0493556 L189.051822,49.0963556 L190.4333,76.4688 L193.293167,88.2662444" id="Fill-21" fill="#7F70A5"></path>
                <path d="M181.645044,47.0493556 C179.807689,53.4593333 174.730733,64.3657889 174.730733,64.3657889 C173.146533,59.5874778 173.016989,51.6565889 173.022922,48.8975889 L179.910533,46.5677667 L181.645044,47.0493556" id="Fill-22" fill="#FFFFFE"></path>
                <path d="M170.971967,87.2565889 C170.971967,87.2565889 169.2068,111.694011 169.693333,120.309211 C169.693333,120.309211 183.649522,118.704244 196.629678,117.042911 C199.033667,108.223011 197.333767,89.0761444 191.718856,81.7979222 C191.718856,81.7979222 183.846311,88.1940556 170.971967,87.2565889" id="Fill-23" fill="#353055"></path>
                <path d="M189.050833,49.0963556 C189.050833,49.0963556 200.238133,58.1179889 201.934078,66.1309556 C201.934078,66.1309556 199.5825,68.7762333 196.790867,68.7821667 C196.790867,68.7821667 190.544056,62.7489556 189.069622,58.6875889 C189.069622,58.6875889 187.028556,52.8610556 189.050833,49.0963556" id="Fill-24" fill="#7F70A5"></path>
                <path d="M199.607222,77.3706667 C202.858689,74.4890444 201.934078,66.1309556 201.934078,66.1309556 C198.883356,66.2446778 196.790867,68.7821667 196.790867,68.7821667 C196.790867,68.7821667 195.8534,73.3251222 195.182933,75.4947444 C195.182933,75.4947444 197.6512,79.1041889 199.607222,77.3706667" id="Fill-25" fill="#7F70A5"></path>
                <path d="M200.406244,73.6504667 C200.406244,73.6504667 202.437422,72.8207889 202.742989,74.1498556 C203.049544,75.4799111 201.446556,75.0675444 199.607222,77.3706667 C197.765911,79.6747778 190.680522,77.8730222 192.616767,75.5135333 C194.000222,73.8294556 200.406244,73.6504667 200.406244,73.6504667" id="Fill-26" fill="#D99F7E"></path>
                <path d="M178.945378,19.5483556 C178.945378,21.8623556 177.070444,23.7382778 174.756444,23.7382778 C172.442444,23.7382778 170.565533,21.8623556 170.565533,19.5483556 C170.565533,17.2343556 172.442444,15.3594222 174.756444,15.3594222 C177.070444,15.3594222 178.945378,17.2343556 178.945378,19.5483556" id="Fill-27" fill="#282434"></path>
                <path d="M173.098078,19.3406889 C173.098078,21.6537 171.222156,23.5296222 168.909144,23.5296222 C166.595144,23.5296222 164.719222,21.6537 164.719222,19.3406889 C164.719222,17.0266889 166.595144,15.1507667 168.909144,15.1507667 C171.222156,15.1507667 173.098078,17.0266889 173.098078,19.3406889" id="Fill-28" fill="#282434"></path>
                <path d="M169.542033,22.3835 C169.542033,24.6975 167.6671,26.5734222 165.3531,26.5734222 C163.0391,26.5734222 161.163178,24.6975 161.163178,22.3835 C161.163178,20.0695 163.0391,18.1945667 165.3531,18.1945667 C167.6671,18.1945667 169.542033,20.0695 169.542033,22.3835" id="Fill-29" fill="#282434"></path>
                <path d="M168.909144,27.5929667 C168.909144,29.9069667 167.033222,31.7828889 164.719222,31.7828889 C162.405222,31.7828889 160.5293,29.9069667 160.5293,27.5929667 C160.5293,25.2789667 162.405222,23.4040333 164.719222,23.4040333 C167.033222,23.4040333 168.909144,25.2789667 168.909144,27.5929667" id="Fill-30" fill="#282434"></path>
                <path d="M186.830778,21.7743444 C186.830778,24.6381667 184.508867,26.9600778 181.645044,26.9600778 C178.781222,26.9600778 176.459311,24.6381667 176.459311,21.7743444 C176.459311,18.9115111 178.781222,16.5896 181.645044,16.5896 C184.508867,16.5896 186.830778,18.9115111 186.830778,21.7743444" id="Fill-31" fill="#282434"></path>
                <path d="M190.783367,26.9600778 C190.783367,29.8239 188.461456,32.1448222 185.598622,32.1448222 C182.7348,32.1448222 180.412889,29.8239 180.412889,26.9600778 C180.412889,24.0962556 182.7348,21.7743444 185.598622,21.7743444 C188.461456,21.7743444 190.783367,24.0962556 190.783367,26.9600778" id="Fill-32" fill="#282434"></path>
                <path d="M193.293167,34.4252 C193.293167,37.2890222 190.971256,39.6109333 188.108422,39.6109333 C185.243611,39.6109333 182.922689,37.2890222 182.922689,34.4252 C182.922689,31.5623667 185.243611,29.2404556 188.108422,29.2404556 C190.971256,29.2404556 193.293167,31.5623667 193.293167,34.4252" id="Fill-33" fill="#282434"></path>
                <path d="M191.086956,39.2826222 C191.086956,42.2305 188.6978,44.6196556 185.750911,44.6196556 C182.802044,44.6196556 180.412889,42.2305 180.412889,39.2826222 C180.412889,36.3347444 182.802044,33.9455889 185.750911,33.9455889 C188.6978,33.9455889 191.086956,36.3347444 191.086956,39.2826222" id="Fill-34" fill="#282434"></path>
                <path d="M186.142511,42.7635111 C186.142511,45.0804778 184.264611,46.9593667 181.947644,46.9593667 C179.629689,46.9593667 177.751789,45.0804778 177.751789,42.7635111 C177.751789,40.4465444 179.629689,38.5676556 181.947644,38.5676556 C184.264611,38.5676556 186.142511,40.4465444 186.142511,42.7635111" id="Fill-35" fill="#282434"></path>
                <path d="M162.884833,31.3982111 C162.884833,31.3982111 160.611378,29.3057222 161.794089,24.9378 C162.977789,20.5708667 174.260022,16.4392889 180.811411,22.0809 C187.3628,27.7225111 186.452033,34.8553667 178.9523,41.3632444 L162.884833,31.3982111" id="Fill-36" fill="#282434"></path>
                <path d="M180.392122,47.0463889 C178.781222,49.7114444 176.615556,50.7665889 174.149267,50.9614 L173.404633,48.3932556 L172.4553,45.1259667 C172.4553,45.1259667 172.931944,43.7751444 173.833811,42.3719111 C174.850389,40.7926556 176.4069,39.1471444 178.428189,39.2915222 L180.392122,47.0463889" id="Fill-37" fill="#D99F7E"></path>
                <path d="M177.751789,40.5553222 C177.751789,40.5553222 177.139667,46.2661556 173.404633,48.3932556 L172.4553,45.1259667 C172.4553,45.1259667 172.931944,43.7751444 173.833811,42.3719111 L177.751789,40.5553222" id="Fill-38" fill="#D1836F"></path>
                <path d="M180.490022,38.6240222 C180.086556,39.6129111 179.592111,40.4861 179.027456,41.2613889 C178.565644,41.8962556 178.057356,42.4619 177.514456,42.9701889 C177.333489,43.1373111 177.149556,43.2994889 176.962656,43.4527667 C176.413822,43.9056778 175.836311,44.3061778 175.240011,44.6572333 C172.928978,46.0159667 170.351933,46.6468778 168.149678,46.9227778 C165.355078,47.2718556 162.884833,45.1002556 162.884833,42.2839 L162.884833,26.1373222 C163.050967,26.0117333 163.2171,25.8920778 163.387189,25.7773667 C172.541333,19.5167111 184.509856,28.7746889 180.490022,38.6240222" id="Fill-39" fill="#D99F7E"></path>
                <path d="M163.4307,32.9903222 L161.364911,38.8415778 L161.406444,38.9266222 L163.4307,39.6326889 C163.4307,39.6326889 164.971389,38.2680222 163.4307,32.9903222" id="Fill-40" fill="#D99F7E"></path>
                <path d="M180.490022,38.6240222 C180.086556,39.6129111 179.592111,40.4861 179.027456,41.2613889 C176.459311,41.8982333 175.202433,37.3424222 176.038044,37.1762889 C178.780233,36.6274556 179.7533,29.9633333 176.105289,30.2837333 C173.000178,30.5566667 174.126522,33.9920667 172.580889,33.9455889 C172.248622,33.9357 171.553433,33.0921778 171.266656,32.9903222 C168.348444,31.9589111 169.503467,29.6755667 166.551633,29.8061 C164.951611,29.8763111 163.526622,28.7826 162.884833,28.0715889 L162.884833,26.1373222 C163.050967,26.0117333 163.2171,25.8920778 163.387189,25.7773667 C172.541333,19.5167111 184.509856,28.7746889 180.490022,38.6240222" id="Fill-41" fill="#282434"></path>
                <path d="M97.0198889,28.3939667 C97.0198889,28.3939667 98.5427778,16.8061667 84.0100667,19.6749333 C75.1169889,21.4302111 75.6836222,35.1194 69.5357,44.8925889 C62.2693444,56.4438 71.7260889,60.8769889 76.4569333,58.6025444 C81.1897556,56.3281 83.3663,45.0448778 82.6384778,37.3107778 C81.9106556,29.5766778 93.0208222,23.4801778 97.0198889,28.3939667" id="Fill-42" fill="#282434"></path>
                <path d="M88.6499333,97.8238556 C84.3462889,99.7126333 79.9704556,100.078522 76.1434556,99.7769111 C69.4160444,99.2508222 64.3796333,96.6698222 64.3796333,96.6698222 L66.1339222,88.2662444 C69.7819333,89.0474667 73.0383444,89.4331333 75.8596444,89.5735556 C83.7994333,89.9720778 88.2870111,88.4521556 88.2870111,88.4521556 L88.6499333,97.8238556" id="Fill-43" fill="#282434"></path>
                <path d="M113.615422,76.4371556 C113.615422,76.4371556 113.088344,76.4272667 112.191422,76.3995778 C108.386178,76.2739889 97.9089,75.7894333 92.3543111,74.1201889 L92.1911444,74.0707444 C90.8927333,73.6672778 89.8791222,73.1955778 89.3065556,72.6497111 L89.3035889,72.6447667 L89.3006222,72.6447667 L89.3006222,72.6388333 C89.3945667,72.5280778 91.3159778,70.1033222 93.0465333,68.7554667 L93.2640889,68.5903222 C93.9335667,68.1008222 94.5615111,67.7982222 95.0262889,67.8822778 C95.0262889,67.8822778 95.2903222,67.9673222 95.7481778,68.1077444 C97.4540111,68.6348222 101.849622,69.9619111 105.252389,70.7035778 C108.079622,71.3186667 110.423289,71.6677444 111.862122,71.8506889 C112.853978,71.9772667 113.416656,72.0237444 113.416656,72.0237444 L113.615422,76.4371556" id="Fill-44" fill="#DF5259"></path>
                <path d="M96.1239556,71.8773889 L92.7834889,72.2541556 L92.2109222,72.3184333 L89.3035889,72.6447667 L89.3006222,72.6418 L89.3006222,72.6388333 C89.1720667,72.3322778 83.8389889,59.6774667 86.9994778,51.4548556 C87.1992333,51.2847667 87.4049222,51.1305 87.6195111,50.9920556 C89.1770111,50.8437222 89.3006222,50.4906889 90.5713444,50.3047778 C90.5713444,50.3047778 92.3365111,51.7287778 93.2383778,55.1503333 C93.2838667,55.3214111 93.3283667,55.4994111 93.3679222,55.6823556 C94.4250444,60.4339667 95.2220889,63.8624444 95.7481778,68.1077444 C95.8945333,69.2874889 96.0201222,70.5285444 96.1239556,71.8773889" id="Fill-45" fill="#DF5259"></path>
                <path d="M93.2640889,68.5903222 C93.1543222,69.8729111 92.9990667,71.1139667 92.7834889,72.2541556 C92.6628444,72.9137444 92.5204444,73.5397111 92.3543111,74.1201889 L92.1911444,74.0707444 C90.8927333,73.6672778 89.8791222,73.1955778 89.3065556,72.6497111 L89.3035889,72.6447667 L89.3006222,72.6447667 L89.3006222,72.6388333 C89.1720667,72.3322778 83.8389889,59.6774667 86.9994778,51.4548556 C87.1992333,51.2847667 87.4049222,51.1305 87.6195111,50.9920556 C89.1770111,50.8437222 89.3006222,50.4906889 90.5713444,50.3047778 C90.5713444,50.3047778 92.3365111,51.7287778 93.2383778,55.1503333 C93.4490111,58.3622444 93.6744778,63.7833333 93.2640889,68.5903222" id="Fill-46" fill="#CF354F"></path>
                <path d="M118.783356,70.7085222 C117.848856,70.7915889 117.148722,70.8657556 117.658989,70.5997444 C118.675567,70.0716778 118.901033,68.8256778 118.3077,68.8949 C117.712389,68.9661 116.939078,69.1164111 115.822622,69.9767444 C114.706167,70.8360889 113.414678,72.0247333 113.414678,72.0247333 L113.615422,76.4381444 C113.615422,76.4381444 116.708667,77.0008222 118.401644,76.0574222 C118.771489,74.1528222 118.764567,72.6457556 118.783356,70.7085222" id="Fill-47" fill="#D99F7E"></path>
                <path d="M125.355511,80.0030889 C122.824944,80.6142222 120.258778,80.0001222 117.657011,78.1598 L120.182633,67.6123111 L127.880144,69.4565889 L125.355511,80.0030889" id="Fill-48" fill="#282434"></path>
                <path d="M118.114867,76.5785667 C117.216956,76.0257778 115.657478,74.3960889 116.186533,72.1859222 C116.716578,69.9737778 118.843678,69.242 119.893878,69.1638778 L119.972,70.2101222 L119.932444,69.687 L119.973978,70.2101222 C119.881022,70.2180333 117.689644,70.4177889 117.207067,72.4311667 C116.721522,74.4613556 118.644911,75.6727444 118.664689,75.6846111 L118.114867,76.5785667" id="Fill-49" fill="#282434"></path>
                <path d="M119.826633,71.1377 C119.851356,70.3732889 119.112656,69.8056667 118.385822,70.0410222 C118.089156,70.1379333 117.819189,70.2981333 117.663933,70.5641444 C117.178389,71.3977778 116.497044,74.6670444 117.585811,75.3503667 C118.843678,76.1404889 119.745544,73.6633222 119.826633,71.1377" id="Fill-50" fill="#D99F7E"></path>
                <path d="M66.5443111,160.812122 C66.5947444,161.816833 66.9962333,169.537089 67.2039,172.596711 L68.5675778,172.596711 L68.5675778,166.237167 C68.5675778,166.237167 69.3596778,168.337567 70.6304,170.148222 L70.8588333,170.463678 C71.6885111,171.566289 72.6981667,172.501778 73.8086889,172.680767 C76.0435778,173.044678 79.1140778,172.865689 80.5272,172.751967 C80.8476,172.725267 81.0018667,172.347511 80.7912333,172.106222 C80.0386889,171.252811 78.5711778,169.573678 77.1432222,167.8896 L77.1412444,167.887622 C77.0473,167.777856 76.9543444,167.668089 76.8633667,167.558322 C76.5845,167.228033 76.3095889,166.900711 76.0435778,166.5813 C74.9815111,165.306622 74.0667889,164.163467 73.6672778,163.552333 C73.1550333,162.767156 72.3105222,161.655644 71.4155778,160.669722 L71.4126111,160.666756 L71.4086556,160.660822 C70.2388,159.374278 68.9858778,158.307267 68.2877222,158.463511 L68.0632444,158.567344 C68.0632444,158.567344 67.7507556,158.714689 67.4056333,159.010367 C66.9764556,159.379222 66.5017889,159.978489 66.5443111,160.812122" id="Fill-51" fill="#481F2D"></path>
                <path d="M67.4056333,159.010367 C67.6647222,159.371311 68.1878444,159.848944 68.3361778,160.212856 C68.3727667,160.300867 68.8157889,161.052422 68.8543556,161.1434 C70.0153111,163.870756 72.2502,167.1954 74.2319333,168.151656 C76.7358,169.361067 77.1274,167.949922 77.1432222,167.8896 L77.1432222,167.887622 C77.0492778,167.777856 76.9563222,167.668089 76.8633667,167.558322 C76.5845,167.228033 76.3095889,166.900711 76.0435778,166.5813 C74.9815111,165.306622 74.0667889,164.163467 73.6672778,163.552333 C73.1550333,162.767156 72.3105222,161.655644 71.4155778,160.669722 L71.4126111,160.666756 L71.4086556,160.660822 C70.2388,159.374278 68.9858778,158.307267 68.2877222,158.463511 L68.0632444,158.567344 C68.0632444,158.567344 67.7507556,158.714689 67.4056333,159.010367" id="Fill-52" fill="#D99F7E"></path>
                <path d="M76.9395111,89.9701 L71.2187889,160.453156 C69.7898444,160.319656 68.4874778,159.911244 67.4066222,159.009378 C67.4066222,159.009378 62.1655111,142.470211 65.5890444,137.616744 C65.5890444,137.616744 63.7724556,128.269767 63.0456222,120.546544 C63.0060667,120.116378 62.9694778,119.691156 62.9368444,119.275822 C62.7242333,116.579122 63.3096556,94.9412444 66.1339222,88.2662444 C69.7819333,89.0474667 73.0383444,89.4331333 75.8596444,89.5735556 C76.5271444,89.8089111 76.9395111,89.9701 76.9395111,89.9701" id="Fill-53" fill="#343245"></path>
                <path d="M86.1777111,160.812122 C86.2271556,161.816833 86.6296333,169.537089 86.8363111,172.596711 L88.1999889,172.596711 L88.1999889,166.237167 C88.1999889,166.237167 88.9930778,168.337567 90.2638,170.148222 L90.4922333,170.463678 C91.3219111,171.566289 92.3305778,172.501778 93.4420889,172.680767 C95.6769778,173.044678 98.7464889,172.865689 100.159611,172.751967 C100.481,172.725267 100.635267,172.347511 100.424633,172.106222 C99.6730778,171.252811 98.2055667,169.573678 96.7756333,167.8896 L96.7736556,167.887622 C96.6807,167.777856 96.5887333,167.668089 96.4957778,167.558322 C96.2179,167.228033 95.9429889,166.900711 95.6769778,166.5813 C94.6159,165.306622 93.7011778,164.163467 93.3006778,163.552333 C92.7874444,162.767156 91.9449111,161.655644 91.0489778,160.669722 L91.0450222,160.666756 L91.0410667,160.660822 C89.8722,159.374278 88.6182889,158.307267 87.9201333,158.463511 L87.6976333,158.567344 C87.6976333,158.567344 87.3831667,158.714689 87.0400222,159.010367 C86.6108444,159.379222 86.1351889,159.978489 86.1777111,160.812122" id="Fill-54" fill="#481F2D"></path>
                <path d="M87.0400222,159.010367 C87.2981222,159.371311 87.8212444,159.848944 87.9695778,160.212856 C88.0051778,160.300867 88.4482,161.052422 88.4867667,161.1434 C89.6487111,163.870756 91.8836,167.1954 93.8653333,168.151656 C96.3682111,169.361067 96.7608,167.949922 96.7756333,167.8896 L96.7756333,167.887622 C96.6826778,167.777856 96.5907111,167.668089 96.4957778,167.558322 C96.2179,167.228033 95.9429889,166.900711 95.6769778,166.5813 C94.6159,165.306622 93.7011778,164.163467 93.3006778,163.552333 C92.7874444,162.767156 91.9449111,161.655644 91.0489778,160.669722 L91.0450222,160.666756 L91.0410667,160.660822 C89.8722,159.374278 88.6182889,158.307267 87.9201333,158.463511 L87.6976333,158.567344 C87.6976333,158.567344 87.3831667,158.714689 87.0400222,159.010367" id="Fill-55" fill="#D99F7E"></path>
                <path d="M78.1321111,95.7531222 C77.2767222,121.099333 84.1702667,138.6976 84.1702667,138.6976 C80.7477222,143.5481 86.6899556,159.364389 86.6899556,159.364389 C88.1357111,160.241533 89.5429,160.793333 90.8462556,160.448211 L89.7327667,123.493433 L88.5213778,94.7662111 L78.1321111,95.7531222" id="Fill-56" fill="#282434"></path>
                <path d="M66.1339222,88.2662444 C73.6119,90.8165889 82.7175889,91.4593667 88.2870111,88.4501778 L91.2784,67.1129222 C91.9083222,64.4903889 92.0556667,61.7739111 91.7105444,59.0989667 L90.5713444,50.3057667 L86.4041667,48.8975889 L79.5155667,46.5677667 L77.7810556,47.0493556 L70.3742778,49.0963556 L68.9928,76.4688 L66.1339222,88.2662444" id="Fill-57" fill="#DF5259"></path>
                <path d="M94.3835111,21.0376222 C94.3835111,21.0376222 99.2379667,24.4591778 99.2211991,28.6214111 C99.1964333,34.6655 94.3835111,40.0183556 94.3835111,40.0183556 L94.3835111,21.0376222" id="Fill-58" fill="#282434"></path>
                <path d="M79.5116111,46.8179556 C81.1225111,49.4830111 83.2891667,50.5381556 85.7544667,50.7319778 L87.4494222,44.8975333 C87.4494222,44.8975333 86.9717889,43.5457222 86.0699222,42.1434778 C85.0533444,40.5632333 83.4978222,38.9177222 81.4765333,39.0621 L79.5116111,46.8179556" id="Fill-59" fill="#D99F7E"></path>
                <path d="M82.1519444,40.3268889 C82.1519444,40.3268889 82.7640667,46.0367333 86.5000889,48.1648222 L87.4494222,44.8975333 C87.4494222,44.8975333 86.9717889,43.5457222 86.0699222,42.1434778 L82.1519444,40.3268889" id="Fill-60" fill="#D1836F"></path>
                <path d="M79.4147,38.3955889 C80.1474667,40.1924 81.1838222,41.6144222 82.3892778,42.7407667 C83.0983111,43.4003556 83.8647,43.9571 84.6637222,44.4278111 C86.9747556,45.7875333 89.5527889,46.4174556 91.7540556,46.6933556 C94.5486556,47.0424333 97.0189,44.8708333 97.0189,42.0544778 L97.0189,25.9088889 C96.8527667,25.7823111 96.6866333,25.6626556 96.5175333,25.5479444 C87.3624,19.2872889 75.3938778,28.5452667 79.4147,38.3955889" id="Fill-61" fill="#D99F7E"></path>
                <path d="M96.4740222,32.7618889 L98.5388222,38.6131444 L98.4982778,38.6981889 L96.4740222,39.4042556 C96.4740222,39.4042556 94.9323444,38.0386 96.4740222,32.7618889" id="Fill-62" fill="#D99F7E"></path>
                <path d="M77.8156667,36.3861667 C78.5494222,38.1839667 73.7839667,43.1106111 79.5155667,46.5677667 C84.0891778,44.0955444 85.4587889,37.2652889 83.8676667,36.9468667 C81.1225111,36.3980333 80.1504251,29.7339111 83.7984444,30.0543111 C86.9035556,30.3272444 85.7772111,33.7626444 87.3238333,33.7161667 C87.6561,33.7072667 87.8983778,33.5470667 88.0763778,33.3018222 C89.3846778,31.5030333 90.3478556,30.2570333 93.3521,29.5766778 C95.1538556,29.1702444 96.3771111,28.5531778 97.0189,27.8421667 L97.3897333,25.7664889 C97.2226111,25.6409 96.7875,25.2364444 96.6500444,25.0841556 C89.3223778,16.9367 73.7948444,26.5358444 77.8156667,36.3861667" id="Fill-63" fill="#282434"></path>
                <path d="M67.2662,79.1902222 C68.4825333,81.9472444 69.6049222,83.9299667 69.6049222,83.9299667 L66.7717556,86.4714111 C65.5534444,85.3935222 64.3638111,84.0417111 63.2285667,82.5405778 C57.7333111,75.2742222 53.5058111,64.5477444 53.5058111,64.5477444 L70.3742778,49.0963556 L71.7458667,59.4994667 C67.9139222,63.0723222 64.2352556,65.6701333 61.5781111,67.3463 C62.9249778,69.4921889 64.8167222,72.7555222 65.8471444,75.6430778 C66.2921444,76.8969889 66.7865889,78.1054111 67.2662,79.1902222" id="Fill-64" fill="#DF5259"></path>
                <path d="M69.6059111,83.9309556 L66.7717556,86.4714111 C65.5544333,85.3945111 64.3648,84.0417111 63.2285667,82.5415667 C64.2837111,81.2520556 66.2822556,79.8478333 67.2662,79.1912111 C68.4835222,81.9482333 69.6059111,83.9309556 69.6059111,83.9309556" id="Fill-65" fill="#CF354F"></path>
                <path d="M66.9725,80.0337444 C66.9725,80.0337444 67.5440778,77.8324778 68.5329667,78.3645 L68.0157778,80.4965444 C68.0157778,80.4965444 69.9826778,80.8960556 69.9807015,82.3823556 C69.9787222,83.8686556 68.3638667,88.5292889 67.0417222,88.6153222 C65.7195778,88.7023444 63.4461222,86.0986 64.0058333,84.2671778 C64.5645556,82.4367444 65.6058556,80.3511778 66.9725,80.0337444" id="Fill-66" fill="#D99F7E"></path>
                <path d="M39.7770667,172.897333 L23.6700444,172.897333 C21.4796556,172.897333 19.5384667,171.487178 18.8610778,169.403589 L12.0308222,148.378822 C11.7519556,147.518489 12.3512222,146.624533 13.2530889,146.555311 C25.6893556,145.591144 38.0049778,145.590156 50.1969889,146.552344 C51.0978667,146.623544 51.6961444,147.516511 51.4172778,148.375856 L44.5860333,169.403589 C43.9086444,171.487178 41.9664667,172.897333 39.7770667,172.897333" id="Fill-67" fill="#343245"></path>
                <path d="M49.9863556,148.081167 C49.9863556,148.640878 41.8586778,149.093789 31.8333222,149.093789 C21.8079667,149.093789 13.6802889,148.640878 13.6802889,148.081167 C13.6802889,147.522444 21.8079667,147.068544 31.8333222,147.068544 C41.8586778,147.068544 49.9863556,147.522444 49.9863556,148.081167" id="Fill-68" fill="#282434"></path>
                <path d="M31.3942556,107.851189 C31.3942556,107.851189 43.1383,107.861078 45.1971667,93.1088333 C45.1971667,93.1088333 28.5462556,93.3639667 31.3942556,107.851189" id="Fill-69" fill="#7F70A5"></path>
                <path d="M32.4859889,133.145978 C32.4859889,133.145978 32.3079889,121.403911 17.5250889,119.581389 C17.5250889,119.581389 18.0452444,136.225378 32.4859889,133.145978" id="Fill-70" fill="#7F70A5"></path>
                <path d="M32.574,147.959533 L32.574,86.8818 C32.574,86.4110889 32.1942667,86.0303667 31.7235556,86.0303667 C31.2528444,86.0303667 30.8721222,86.4110889 30.8721222,86.8818 L30.8721222,147.959533 C31.4882,148.1316 32.0637333,148.130611 32.574,147.959533" id="Fill-71" fill="#E4D9E3"></path>
                <path d="M31.7235556,93.0603778 C31.7235556,93.0603778 33.3364333,81.4280778 48.2310778,81.4280778 C48.2310778,81.4280778 45.6777667,97.8831889 31.7235556,93.0603778" id="Fill-72" fill="#7F70A5"></path>
                <path d="M32.4859889,96.6332333 C32.4859889,96.6332333 30.8721222,84.9999444 15.9764889,84.9999444 C15.9764889,84.9999444 18.5307889,101.456044 32.4859889,96.6332333" id="Fill-73" fill="#7F70A5"></path>
                <path d="M32.6531111,106.965144 C32.6531111,106.965144 28.8389667,95.8579444 14.2212111,98.7158333 C14.2212111,98.7158333 19.8826,114.375878 32.6531111,106.965144" id="Fill-74" fill="#7F70A5"></path>
                <path d="M31.7116889,109.445278 C31.7116889,109.445278 42.6567111,113.702444 49.9121889,100.6946 C49.9121889,100.6946 34.2976333,94.9076222 31.7116889,109.445278" id="Fill-75" fill="#7F70A5"></path>
                <path d="M31.4990778,119.944311 C31.4990778,119.944311 40.1874556,128.175822 50.1248,112.141978 C50.1248,112.141978 32.9131889,108.6957 31.4990778,119.944311" id="Fill-76" fill="#7F70A5"></path>
                <path d="M32.0983444,132.935344 C32.0983444,132.935344 41.8013222,139.940633 49.5255333,122.730011 C49.5255333,122.730011 32.0083556,121.597733 32.0983444,132.935344" id="Fill-77" fill="#7F70A5"></path>
                <path d="M31.7235556,134.422633 C31.7235556,134.422633 31.3814,122.460044 13.0236667,126.7983 C13.0236667,126.7983 22.7790556,141.390344 31.7235556,134.422633" id="Fill-78" fill="#7F70A5"></path>
                <path d="M32.6066333,119.3401 C32.6066333,119.3401 32.5581778,107.371578 14.0985889,111.2589 C14.0985889,111.2589 23.4940222,126.0863 32.6066333,119.3401" id="Fill-79" fill="#7F70A5"></path>
                <path d="M124.815578,29.3353889 C117.108178,29.3353889 110.838622,23.0658333 110.838622,15.3594222 C110.838622,15.1270333 110.844556,14.8976111 110.855433,14.6681889 C111.217367,22.0542 117.339578,27.9529222 124.815578,27.9529222 C132.2896,27.9529222 138.4128,22.0542 138.773744,14.6681889 C138.785611,14.8976111 138.791544,15.1270333 138.791544,15.3594222 C138.791544,23.0658333 132.521989,29.3353889 124.815578,29.3353889" id="Fill-80" fill="#BDBDB8"></path>
                <path d="M124.815578,27.9529222 C117.108178,27.9529222 110.838622,21.6833667 110.838622,13.9769556 C110.838622,6.27054444 117.108178,2.63492931e-14 124.815578,2.63492931e-14 C132.521989,2.63492931e-14 138.791544,6.27054444 138.791544,13.9769556 C138.791544,21.6833667 132.521989,27.9529222 124.815578,27.9529222" id="Fill-81" fill="#282434"></path>
                <path d="M136.733667,13.9769556 C136.733667,20.5599889 131.397622,25.8960333 124.815578,25.8960333 C118.232544,25.8960333 112.895511,20.5599889 112.895511,13.9769556 C112.895511,7.39392222 118.232544,2.05787778 124.815578,2.05787778 C131.397622,2.05787778 136.733667,7.39392222 136.733667,13.9769556" id="Fill-82" fill="#FFFFFE"></path>
                <path d="M124.815578,5.78697778 C124.599011,5.78697778 124.422989,5.61095556 124.422989,5.39438889 L124.422989,3.19312222 C124.422989,2.97754444 124.599011,2.80251111 124.815578,2.80251111 C125.030167,2.80251111 125.206189,2.97754444 125.206189,3.19312222 L125.206189,5.39438889 C125.206189,5.61095556 125.030167,5.78697778 124.815578,5.78697778" id="Fill-83" fill="#282434"></path>
                <path d="M124.815578,24.8962667 C124.599011,24.8962667 124.422989,24.7202444 124.422989,24.5046667 L124.422989,22.3034 C124.422989,22.0868333 124.599011,21.9118 124.815578,21.9118 C125.031156,21.9118 125.206189,22.0868333 125.206189,22.3034 L125.206189,24.5046667 C125.206189,24.7202444 125.031156,24.8962667 124.815578,24.8962667" id="Fill-84" fill="#282434"></path>
                <path d="M117.090378,13.8493889 C117.090378,14.0649667 116.914356,14.24 116.698778,14.24 L114.497511,14.24 C114.280944,14.24 114.1069,14.0649667 114.1069,13.8493889 C114.1069,13.6328222 114.280944,13.4577889 114.497511,13.4577889 L116.698778,13.4577889 C116.914356,13.4577889 117.090378,13.6328222 117.090378,13.8493889" id="Fill-85" fill="#282434"></path>
                <path d="M136.199667,13.8493889 C136.199667,14.0649667 136.024633,14.24 135.808067,14.24 L133.6068,14.24 C133.391222,14.24 133.216189,14.0649667 133.216189,13.8493889 C133.216189,13.6328222 133.391222,13.4577889 133.6068,13.4577889 L135.808067,13.4577889 C136.024633,13.4577889 136.199667,13.6328222 136.199667,13.8493889" id="Fill-86" fill="#282434"></path>
                <path d="M119.264944,8.38676667 C119.112656,8.54004444 118.865433,8.54004444 118.712156,8.38676667 L117.156633,6.83025556 C117.002367,6.67796667 117.002367,6.42975556 117.156633,6.27647778 C117.308922,6.12418889 117.556144,6.12418889 117.709422,6.27647778 L119.264944,7.83298889 C119.419211,7.98626667 119.419211,8.23447778 119.264944,8.38676667" id="Fill-87" fill="#282434"></path>
                <path d="M132.778111,21.8989444 C132.624833,22.0522222 132.377611,22.0522222 132.225322,21.8989444 L130.668811,20.3434222 C130.515533,20.1901444 130.515533,19.9419333 130.668811,19.7896444 C130.8211,19.6363667 131.069311,19.6363667 131.2216,19.7896444 L132.778111,21.3461556 C132.931389,21.4984444 132.931389,21.7466556 132.778111,21.8989444" id="Fill-88" fill="#282434"></path>
                <path d="M119.505244,19.5503333 C119.657533,19.7036111 119.657533,19.9508333 119.505244,20.1041111 L117.947744,21.6606222 C117.795456,21.8129111 117.547244,21.8129111 117.394956,21.6606222 C117.242667,21.5073444 117.242667,21.2591333 117.394956,21.1068444 L118.951467,19.5503333 C119.103756,19.3980444 119.351967,19.3980444 119.505244,19.5503333" id="Fill-89" fill="#282434"></path>
                <path d="M133.017422,6.03815556 C133.1707,6.19044444 133.1707,6.43865556 133.017422,6.59094444 L131.460911,8.14745556 C131.307633,8.30073333 131.060411,8.30073333 130.908122,8.14745556 C130.754844,7.99516667 130.754844,7.74695556 130.908122,7.59466667 L132.463644,6.03815556 C132.616922,5.88487778 132.864144,5.88487778 133.017422,6.03815556" id="Fill-90" fill="#282434"></path>
                <path d="M112.925178,14.8293778 C112.9054,14.5613889 112.8965,14.2914222 112.895511,14.0184889 C112.8965,14.2914222 112.906389,14.5613889 112.925178,14.8293778 M136.720811,14.5416111 C136.727733,14.3932778 136.731689,14.2449444 136.733667,14.0946333 C136.731689,14.2449444 136.727733,14.3932778 136.720811,14.5416111 M112.895511,13.9759667 L112.895511,13.9759667 C112.895511,9.92943333 114.911856,6.35361111 117.9962,4.19981111 C114.912844,6.35361111 112.895511,9.93042222 112.895511,13.9769556 M136.733667,13.9769556 C136.733667,11.6916333 136.090889,9.55662222 134.975422,7.74201111 C136.090889,9.55563333 136.733667,11.6906444 136.733667,13.9759667" id="Fill-91" fill="#201E29"></path>
                <path d="M136.690156,15.0044111 C136.417222,11.8142556 134.889389,8.98306667 132.6011,7.00726667 L133.017422,6.59094444 C133.1707,6.43865556 133.1707,6.19044444 133.017422,6.03815556 C132.941278,5.96102222 132.840411,5.92344444 132.740533,5.92344444 C132.640656,5.92344444 132.540778,5.96102222 132.463644,6.03815556 L131.988978,6.51282222 C130.090311,5.08091111 127.748622,4.20277778 125.206189,4.1207 L125.206189,3.19312222 C125.206189,2.97754444 125.030167,2.80251111 124.815578,2.80251111 C124.599011,2.80251111 124.422989,2.97754444 124.422989,3.19312222 L124.422989,4.1207 C121.958678,4.2008 119.683244,5.02751111 117.816222,6.38327778 L117.709422,6.27647778 C117.633278,6.20033333 117.532411,6.16176667 117.432533,6.16176667 C117.332656,6.16176667 117.232778,6.20033333 117.156633,6.27647778 C117.002367,6.42975556 117.002367,6.67796667 117.156633,6.83025556 L117.194211,6.86783333 C114.813956,8.84857778 113.218878,11.7381111 112.940011,15.0044111 C112.935067,14.9460667 112.930122,14.8877222 112.925178,14.8293778 C112.906389,14.5613889 112.8965,14.2914222 112.895511,14.0184889 C112.895511,14.0165111 112.895511,14.0155222 112.895511,14.0135444 C112.895511,14.0016778 112.895511,13.9908 112.895511,13.9779444 C112.895511,13.9779444 112.895511,13.9769556 112.895511,13.9759667 C112.895511,9.93042222 114.912844,6.35361111 117.9962,4.19981111 C119.9275,2.84997778 122.279078,2.05787778 124.815578,2.05787778 C129.1123,2.05787778 132.878978,4.33232222 134.975422,7.74201111 C136.090889,9.55662222 136.733667,11.6916333 136.733667,13.9769556 C136.733667,13.9769556 136.733667,13.9779444 136.733667,13.9789333 C136.733667,13.9898111 136.733667,14.0006889 136.733667,14.0125556 C136.733667,14.0155222 136.733667,14.0194778 136.733667,14.0234333 C136.733667,14.0323333 136.733667,14.0402444 136.733667,14.0491444 C136.733667,14.0531 136.733667,14.0560667 136.733667,14.0600222 C136.733667,14.0699111 136.733667,14.0788111 136.733667,14.0877111 C136.733667,14.0906778 136.733667,14.0926556 136.733667,14.0946333 C136.731689,14.2449444 136.727733,14.3932778 136.720811,14.5416111 C136.713889,14.6968667 136.703011,14.8511333 136.690156,15.0044111" id="Fill-92" fill="#BDBDB8"></path>
                <path d="M124.422989,4.1207 L124.422989,3.19312222 C124.422989,2.97754444 124.599011,2.80251111 124.815578,2.80251111 C125.030167,2.80251111 125.206189,2.97754444 125.206189,3.19312222 L125.206189,4.1207 C125.076644,4.11674444 124.946111,4.11476667 124.815578,4.11476667 C124.684056,4.11476667 124.553522,4.11674444 124.422989,4.1207" id="Fill-93" fill="#201E29"></path>
                <path d="M117.194211,6.86783333 L117.156633,6.83025556 C117.002367,6.67796667 117.002367,6.42975556 117.156633,6.27647778 C117.232778,6.20033333 117.332656,6.16176667 117.432533,6.16176667 C117.532411,6.16176667 117.633278,6.20033333 117.709422,6.27647778 L117.816222,6.38327778 C117.603611,6.53853333 117.395944,6.69972222 117.194211,6.86783333" id="Fill-94" fill="#201E29"></path>
                <path d="M132.6011,7.00726667 C132.402333,6.83618889 132.197633,6.67104444 131.988978,6.51282222 L132.463644,6.03815556 C132.540778,5.96102222 132.640656,5.92344444 132.740533,5.92344444 C132.840411,5.92344444 132.941278,5.96102222 133.017422,6.03815556 C133.1707,6.19044444 133.1707,6.43865556 133.017422,6.59094444 L132.6011,7.00726667" id="Fill-95" fill="#201E29"></path>
                <polyline id="Fill-96" fill="#DF5259" points="125.130044 14.24 128.508089 22.3835 124.561433 14.6325889 125.130044 14.24"></polyline>
                <path d="M126.163433,13.8493889 C126.163433,14.5485333 125.5968,15.1151667 124.897656,15.1151667 C124.198511,15.1151667 123.630889,14.5485333 123.630889,13.8493889 C123.630889,13.1502444 124.198511,12.5826222 124.897656,12.5826222 C125.5968,12.5826222 126.163433,13.1502444 126.163433,13.8493889" id="Fill-97" fill="#282434"></path>
                <polyline id="Fill-98" fill="#282434" points="123.811856 13.8493889 121.864733 9.01767778 124.897656 13.2530889 123.811856 13.8493889"></polyline>
                <polyline id="Fill-99" fill="#282434" points="124.992589 13.1561778 132.593189 16.3483111 124.561433 14.4892 124.992589 13.1561778"></polyline>
            </g>
        </g>
    </g>
</svg>